<svg width="1920" height="1080" viewBox="0 0 1920 1080" fill="none" xmlns="http://www.w3.org/2000/svg">
<rect width="1920" height="1080" fill="#1F1F1F"/>
<rect x="1308" y="713.285" width="182.995" height="182.995" rx="10" transform="rotate(-11.7562 1308 713.285)" fill="#F927A5" fill-opacity="0.5"/>
<path d="M1429.48 813.645C1428.91 813.763 1428.55 814.331 1428.67 814.908C1429.35 818.175 1427.29 821.375 1424.09 822.042C1420.88 822.709 1417.72 820.593 1417.04 817.329C1416.92 816.752 1416.36 816.376 1415.79 816.494C1415.22 816.612 1414.86 817.181 1414.98 817.757C1415.9 822.179 1420.18 825.043 1424.52 824.14C1428.86 823.236 1431.65 818.902 1430.73 814.479C1430.61 813.903 1430.05 813.527 1429.48 813.645L1429.48 813.645Z" fill="black"/>
<path d="M1470.17 780.322C1469.61 777.654 1468 775.534 1465.96 774.337C1464.84 768.391 1463.8 765.235 1461.13 758.561C1457.76 750.17 1454.09 741.903 1433.97 711.163C1433.83 713.054 1431.48 720.244 1430.32 723.103C1429.14 720.211 1427.6 717.263 1425.64 714.307C1425.57 715.342 1422.45 725.809 1420.24 729.457C1419.22 726.5 1417.73 723.477 1415.71 720.436C1415.59 722.084 1415.13 723.654 1414.43 725.154C1413.65 723.091 1413.05 720.925 1412.76 718.594C1412.53 722.184 1411.39 725.897 1409.64 729.48C1408.59 726.822 1407.21 724.122 1405.46 721.401C1405.36 723.015 1405.03 724.653 1404.59 726.293C1403.52 724.967 1402.57 723.593 1401.84 722.154C1401.32 725.346 1401.12 728.373 1401.22 731.233C1398.19 728.643 1395.66 725.695 1394.03 722.492C1394.69 724.744 1395 726.97 1395.11 729.175C1393.87 728.081 1392.82 726.823 1392.05 725.36C1391.42 728.921 1391.26 732.256 1391.49 735.351C1391.47 735.361 1391.45 735.374 1391.43 735.385C1387.92 732.864 1380.98 724.617 1380.5 723.703C1379.88 727.196 1379.64 730.512 1379.72 733.635C1377.51 731.477 1372.49 725.822 1371.6 724.144C1366.71 752.78 1365.31 767.778 1365.13 774.618C1364.98 780.255 1365.09 786.44 1366.51 793.275C1366.51 793.275 1366.58 793.951 1366.71 794.945C1365.28 796.862 1364.64 799.477 1365.2 802.171C1366.1 806.537 1368.77 808.152 1370.92 808.749C1371.31 811.181 1371.76 813.655 1372.32 816.214C1375.44 830.445 1384.22 840.387 1397.73 844.969C1411.51 849.643 1425.3 847.359 1429.19 846.548C1433.09 845.737 1446.64 842.331 1457.42 832.547C1467.97 822.958 1472.06 810.336 1469.25 796.041C1468.74 793.472 1468.16 791.025 1467.55 788.639C1469.28 787.233 1471.08 784.688 1470.17 780.322L1470.17 780.322ZM1370.55 806.351C1369.13 805.693 1367.79 804.371 1367.25 801.742C1366.68 799.011 1367.68 796.386 1369.56 795.048C1369.67 798.644 1370 802.414 1370.55 806.351V806.351ZM1428.75 844.448C1392.44 852.006 1377.48 829.972 1374.36 815.762C1369.82 795.026 1370.87 778.526 1377.46 766.651C1377.11 769.958 1386.21 780.059 1399.98 769.881C1400.58 770.376 1415.56 773.586 1422.66 764.252C1422.91 765.428 1439.52 765.318 1445.58 754.281C1447.15 756.084 1455.11 762.42 1459.59 772.147C1462.79 779.001 1465.34 787.102 1467.18 796.448C1469.99 810.72 1465.07 836.892 1428.75 844.45L1428.75 844.448ZM1466.92 786.296C1465.85 782.466 1464.66 778.876 1463.32 775.538C1465.58 776.015 1467.54 778.023 1468.11 780.752C1468.66 783.377 1467.95 785.123 1466.92 786.296Z" fill="black"/>
<path d="M1436.9 787.578C1437.26 789.282 1436.19 790.945 1434.52 791.293C1432.84 791.641 1431.2 790.543 1430.84 788.838C1430.49 787.134 1431.56 785.471 1433.23 785.123C1434.9 784.775 1436.55 785.874 1436.9 787.578Z" fill="black"/>
<path d="M1404.64 794.292C1405 795.996 1403.93 797.659 1402.26 798.007C1400.58 798.355 1398.94 797.256 1398.58 795.552C1398.23 793.848 1399.3 792.185 1400.97 791.837C1402.64 791.489 1404.29 792.588 1404.64 794.292Z" fill="black"/>
<path d="M1422.63 802.753L1418.84 803.542L1416.22 784.213L1414.14 784.489L1417.06 806.098L1423.06 804.849L1422.63 802.753Z" fill="black"/>
<g opacity="0.5">
<rect x="43" y="247.6" width="297.235" height="297.235" rx="10" transform="rotate(-7.46174 43 247.6)" fill="#7EFFA7"/>
<path d="M228.424 439.227L207.902 441.915C205.561 442.221 203.902 444.377 204.209 446.715C204.515 449.052 206.67 450.708 209.014 450.401L229.535 447.714C231.876 447.407 233.529 445.252 233.223 442.914C232.917 440.576 230.765 438.92 228.424 439.227Z" fill="black"/>
<path d="M211.088 387.277C204.352 388.159 199.584 394.357 200.467 401.094L202.067 413.315C202.95 420.052 209.154 424.819 215.89 423.936C222.626 423.054 227.393 416.85 226.511 410.114L224.91 397.892C224.028 391.156 217.825 386.395 211.088 387.277ZM218.132 411.211C218.41 413.33 216.914 415.28 214.793 415.558C212.674 415.835 210.724 414.34 210.446 412.218L208.845 399.996C208.568 397.88 210.064 395.933 212.186 395.656C214.302 395.378 216.254 396.874 216.531 398.989L218.132 411.211Z" fill="black"/>
<path d="M261.499 357.677C257.158 354.337 251.787 352.894 246.369 353.604C235.527 355.024 227.759 364.736 228.613 375.516L191.314 380.401C189.367 369.758 179.361 362.38 168.513 363.801C157.317 365.267 149.404 375.569 150.87 386.763C152.336 397.959 162.638 405.872 173.831 404.406C183.312 403.164 190.626 395.53 191.538 386.086L229.852 381.068C233.166 389.959 242.203 395.451 251.68 394.21C262.876 392.744 270.79 382.441 269.324 371.248C268.623 365.835 265.84 361.018 261.5 357.677L261.499 357.677Z" fill="black"/>
<path d="M324.442 358.961C322.302 349.619 315.891 342.427 307.898 339.594C291.13 279.039 236.864 259.49 188.699 267.214C167.335 270.687 146.693 281.372 132.058 296.531C114.784 314.432 105.837 338.493 105.754 366.348C98.6163 371.106 94.1589 379.79 94.5039 389.483C94.926 401.331 102.355 411.21 112.666 413.947C112.798 414.955 112.91 415.972 113.054 416.982C117.172 446.016 133.565 467.276 160.448 478.452C187.682 489.774 216.004 487.222 224.034 486.17C232.065 485.118 260.083 480.292 283.486 462.337C306.59 444.615 316.949 419.852 313.45 390.735C313.316 389.614 313.15 388.512 313.004 387.396C322.391 382.15 327.1 370.598 324.438 358.963L324.442 358.961ZM109.993 403.445C105.911 400.356 103.176 395.061 102.958 389.18C102.619 380.077 107.132 376.044 108.962 374.446L109.993 403.445ZM223.079 478.834C150.406 488.352 124.331 443.778 120.381 415.942C118.821 404.94 118.001 394.408 117.945 384.657C117.939 361.435 125.77 348.261 132.229 337.724C132.339 344.942 162.381 354.434 178.905 345.918C193.884 350.817 213.746 349.545 224.59 339.21C233.55 346.686 264.767 333.823 273.194 322.207C282.683 330.402 293.962 342.168 300.443 360.828C302.894 370.257 304.804 380.62 306.119 391.615C309.466 419.533 295.752 469.315 223.081 478.833L223.079 478.834ZM313.08 376.451L306.61 348.161C308.807 349.246 314.63 353.647 316.206 360.851C317.462 366.602 316.229 372.414 313.08 376.451L313.08 376.451Z" fill="black"/>
</g>
<g opacity="0.5">
<rect x="797" y="83.4935" width="213.485" height="213.485" rx="10" transform="rotate(-4.16187 797 83.4935)" fill="#CB8CFF"/>
<rect x="797" y="83.4935" width="213.485" height="213.485" rx="10" transform="rotate(-4.16187 797 83.4935)" fill="#CB8CFF"/>
</g>
<path d="M912.345 198.782C907.478 199.136 903.803 203.384 904.157 208.25L904.8 217.08C905.154 221.947 909.405 225.621 914.272 225.267C919.139 224.913 922.813 220.662 922.459 215.795L921.817 206.965C921.463 202.099 917.212 198.428 912.345 198.782ZM916.406 216.235C916.517 217.766 915.364 219.102 913.832 219.214C912.301 219.325 910.965 218.172 910.853 216.64L910.211 207.81C910.099 206.281 911.253 204.947 912.785 204.836C914.314 204.724 915.652 205.877 915.764 207.406L916.406 216.235Z" fill="black"/>
<path d="M924.813 231.097C923.354 231.203 922.252 232.478 922.358 233.937C922.656 238.027 919.571 241.594 915.483 241.892C911.393 242.189 907.825 239.104 907.528 235.016C907.422 233.557 906.147 232.455 904.688 232.561C903.229 232.667 902.127 233.942 902.233 235.401C902.743 242.411 908.861 247.699 915.871 247.189C922.88 246.679 928.168 240.561 927.658 233.551C927.548 232.093 926.275 230.99 924.814 231.097L924.813 231.097Z" fill="black"/>
<path d="M881.103 182.087C871.505 182.785 864.264 191.163 864.962 200.761C865.087 202.484 866.591 203.782 868.312 203.657C870.035 203.532 871.333 202.028 871.207 200.307C870.76 194.152 875.401 188.782 881.556 188.334C887.71 187.887 893.08 192.528 893.528 198.683C893.654 200.406 895.157 201.703 896.878 201.578C898.601 201.453 899.899 199.949 899.774 198.228C899.079 188.63 890.701 181.388 881.103 182.087L881.103 182.087Z" fill="black"/>
<path d="M940.98 177.729C931.382 178.428 924.141 186.806 924.839 196.404C924.964 198.127 926.468 199.425 928.189 199.3C929.912 199.174 931.21 197.671 931.084 195.95C930.636 189.795 935.278 184.425 941.433 183.977C947.587 183.53 952.957 188.171 953.405 194.326C953.531 196.049 955.034 197.346 956.755 197.221C958.478 197.096 959.776 195.592 959.651 193.871C958.958 184.272 950.578 177.031 940.98 177.73L940.98 177.729Z" fill="black"/>
<path d="M886.665 200.341C886.842 202.778 885.012 204.898 882.574 205.075C880.137 205.252 878.017 203.42 877.84 200.983C877.662 198.547 879.495 196.427 881.931 196.249C884.37 196.072 886.488 197.905 886.665 200.341Z" fill="black"/>
<path d="M946.948 195.955C947.125 198.391 945.293 200.511 942.856 200.688C940.418 200.866 938.3 199.033 938.122 196.597C937.945 194.16 939.775 192.04 942.214 191.863C944.651 191.686 946.771 193.518 946.948 195.955Z" fill="black"/>
<path d="M995.032 186.419C993.884 179.631 989.584 174.21 983.97 171.848C979.385 150.602 968.158 135.833 953.871 126.608C956.524 118.409 960.516 100.174 947.548 90.76L943.577 87.8779L942.773 92.7206C942.744 92.884 940.066 108.463 932.536 117.321C922.455 114.677 911.835 113.968 901.492 115.018C894.195 115.774 886.965 117.727 880.177 120.619C871.806 112.829 867.072 98.3859 867.023 98.2303L865.52 93.566L862.014 96.9879C850.811 107.923 856.843 124.86 860.682 132.841C860.351 133.133 859.992 133.399 859.668 133.7C846.542 145.822 839.131 162.705 837.921 182.675C832.606 185.792 829.05 191.834 828.897 198.799C828.71 207.311 833.629 214.702 840.909 217.091C840.962 217.82 841 218.553 841.062 219.283C842.814 240.273 853.69 256.194 872.503 265.319C891.564 274.564 911.977 273.905 917.779 273.482C923.58 273.06 943.87 270.758 961.394 258.851C978.693 247.099 987.144 229.771 985.84 208.748C985.789 207.939 985.716 207.142 985.658 206.335C992.605 202.96 996.459 194.871 995.031 186.419L995.032 186.419ZM947.507 99.3298C952.334 106.535 950.297 117.262 948.475 123.458C945.328 121.807 942.065 120.395 938.719 119.214C943.357 112.811 946.101 104.685 947.507 99.3297L947.507 99.3298ZM863.29 105.454C865.392 110.397 869.13 117.751 874.391 123.362C871.296 125.003 868.357 126.873 865.568 128.912C862.896 122.972 859.647 113.054 863.29 105.453L863.29 105.454ZM839.421 209.453C836.622 207.069 834.913 201.787 834.966 198.933C835.065 193.664 838.502 189.687 839.881 188.616L839.421 209.453ZM917.391 268.18C864.888 272 848.034 238.96 846.352 218.838C845.689 210.884 845.536 203.299 845.899 196.304C846.855 179.653 853.015 170.53 858.082 163.242C859.555 176.539 879.011 176.47 891.212 171.047C897.256 175.442 916.045 175.088 924.247 168.125C933.956 172.772 953.278 165.924 959.802 157.943C966.267 164.212 973.868 173.115 977.743 186.763C979.111 193.625 980.052 201.134 980.541 209.073C981.787 229.23 969.895 264.359 917.393 268.179L917.391 268.18ZM986.159 198.487L982.689 177.935C984.219 178.804 988.56 182.619 989.046 187.431C989.471 191.639 988.583 195.723 986.159 198.487L986.159 198.487Z" fill="black"/>
<rect x="377.309" y="711" width="206.728" height="206.728" rx="10" transform="rotate(10.9614 377.309 711)" fill="#8FA2DC" fill-opacity="0.5"/>
<path d="M481.164 821.966C474.875 820.748 468.764 824.873 467.546 831.165L451.683 828.093C452.902 821.804 448.777 815.694 442.484 814.475C436.192 813.256 430.085 817.382 428.866 823.674C427.647 829.966 431.776 836.074 438.065 837.292C443.643 838.373 449.067 835.247 451.078 830.14L467.339 833.289C467.297 838.774 471.165 843.703 476.74 844.783C483.032 846.002 489.14 841.876 490.359 835.584C491.583 829.293 487.457 823.185 481.165 821.967L481.164 821.966ZM438.609 834.511C433.851 833.589 430.732 828.97 431.653 824.214C432.575 819.458 437.194 816.337 441.951 817.258C446.708 818.18 449.827 822.799 448.906 827.555C447.982 832.307 443.364 835.432 438.609 834.511ZM477.284 842.002C472.528 841.08 469.407 836.461 470.328 831.704C471.249 826.948 475.869 823.828 480.625 824.749C485.383 825.67 488.502 830.29 487.581 835.046C486.66 839.799 482.042 842.923 477.284 842.002Z" fill="black"/>
<path d="M455.987 847.076C453.248 846.546 451.452 843.887 451.982 841.148C452.051 840.791 452.397 840.559 452.752 840.628C453.108 840.697 453.34 841.043 453.271 841.397C452.879 843.423 454.209 845.393 456.235 845.785C458.261 846.177 460.229 844.847 460.621 842.821C460.69 842.464 461.036 842.232 461.391 842.301C461.747 842.37 461.979 842.716 461.91 843.071C461.382 845.808 458.723 847.606 455.987 847.076L455.987 847.076Z" fill="black"/>
<path d="M479.601 833.497C479.333 834.88 477.993 835.787 476.609 835.519C475.225 835.251 474.319 833.909 474.587 832.526C474.855 831.141 476.197 830.237 477.58 830.505C478.965 830.773 479.869 832.113 479.601 833.497Z" fill="black"/>
<path d="M418.416 843.119C418.21 844.18 416.62 843.872 416.826 842.811C417.031 841.752 418.621 842.06 418.416 843.119Z" fill="black"/>
<path d="M423.97 845.214C423.764 846.274 422.174 845.966 422.38 844.906C422.585 843.845 424.175 844.153 423.97 845.214Z" fill="black"/>
<path d="M420.087 847.159C419.882 848.218 418.292 847.91 418.497 846.851C418.703 845.791 420.293 846.099 420.087 847.159Z" fill="black"/>
<path d="M418.029 850.97C417.824 852.029 416.234 851.721 416.439 850.662C416.645 849.601 418.235 849.909 418.029 850.97Z" fill="black"/>
<path d="M420.343 854.628C420.138 855.689 418.546 855.38 418.751 854.319C418.957 853.259 420.549 853.567 420.343 854.628Z" fill="black"/>
<path d="M424.622 854.687C424.417 855.747 422.827 855.439 423.032 854.379C423.237 853.32 424.827 853.628 424.622 854.687Z" fill="black"/>
<path d="M422.827 851.143C422.621 852.204 421.031 851.896 421.236 850.835C421.441 849.776 423.032 850.084 422.827 851.143Z" fill="black"/>
<path d="M426.542 849.448C426.336 850.508 424.746 850.2 424.952 849.14C425.157 848.081 426.747 848.389 426.542 849.448Z" fill="black"/>
<path d="M444.645 826.727C444.378 828.11 443.036 829.016 441.653 828.749C440.268 828.48 439.364 827.139 439.632 825.756C439.9 824.371 441.239 823.467 442.624 823.735C444.007 824.003 444.914 825.342 444.645 826.727Z" fill="black"/>
<path d="M494.417 857.839C494.211 858.9 492.621 858.592 492.827 857.531C493.032 856.472 494.622 856.78 494.417 857.839Z" fill="black"/>
<path d="M488.487 857.709C488.281 858.77 486.689 858.462 486.895 857.401C487.1 856.34 488.692 856.648 488.487 857.709Z" fill="black"/>
<path d="M491.358 860.963C491.153 862.022 489.563 861.714 489.768 860.655C489.974 859.594 491.564 859.902 491.358 860.963Z" fill="black"/>
<path d="M491.849 865.268C491.644 866.327 490.054 866.019 490.259 864.96C490.464 863.899 492.055 864.207 491.849 865.268Z" fill="black"/>
<path d="M488.332 867.796C488.126 868.857 486.536 868.549 486.741 867.488C486.947 866.427 488.537 866.735 488.332 867.796Z" fill="black"/>
<path d="M484.34 866.253C484.135 867.313 482.545 867.005 482.75 865.945C482.955 864.886 484.545 865.194 484.34 866.253Z" fill="black"/>
<path d="M487.324 863.635C487.119 864.696 485.528 864.388 485.734 863.327C485.939 862.268 487.529 862.576 487.324 863.635Z" fill="black"/>
<path d="M484.516 860.676C484.311 861.737 482.72 861.429 482.926 860.368C483.131 859.309 484.721 859.617 484.516 860.676Z" fill="black"/>
<path d="M529.772 864.548C529.898 864.077 544.1 855.456 532.569 845.445C532.43 845.324 528.468 849.514 522.816 848.3C512.113 845.997 515.117 829.161 514.937 814.939C515.928 791.461 498.026 769.75 472.181 764.744C446.337 759.739 421.625 773.2 413.782 795.347C408.304 808.475 404.804 825.213 394.017 823.354C388.318 822.372 386.209 817.004 386.035 817.064C371.599 822.046 381.556 835.346 381.498 835.83C374.148 839.93 372.739 853.741 382.634 860.624C383.165 865.628 386.021 870.719 391.981 873.66C393.03 874.051 394.173 874.221 395.347 874.292C396.813 877.444 399.398 880.303 403.316 882.235C406.048 883.253 409.335 883.079 412.403 882.141C413.937 884.779 416.296 887.144 419.669 888.81C420.556 889.143 421.51 889.32 422.493 889.406C428.208 894.128 435.146 897.538 442.934 899.047L449.068 900.235C456.878 901.747 464.611 901.181 471.697 898.93C472.658 899.228 473.623 899.424 474.588 899.449C478.343 899.163 481.413 897.85 483.819 895.975C486.315 897.99 489.299 899.379 492.214 899.454C496.566 899.124 500.035 897.44 502.572 895.061C503.685 895.432 504.809 895.703 505.93 895.732C512.558 895.229 517.109 891.57 519.469 887.128C531.213 884.434 535.063 871.092 529.773 864.548L529.772 864.548ZM495.679 865.768C493.082 879.177 484.722 889.927 473.682 896.096C466.215 898.992 457.88 899.93 449.435 898.295L443.301 897.107C434.961 895.491 427.667 891.571 421.866 886.184C413.849 876.324 410.058 863.166 412.668 849.69L419.327 815.296C419.785 812.933 420.441 810.655 421.246 808.459C426.854 810.016 450.741 815.993 463.616 808.956C472.935 820.294 497.331 823.664 503.107 824.314C503.036 826.653 502.792 829.01 502.334 831.373L495.675 865.767L495.679 865.768Z" fill="black"/>
<path d="M453.803 857.856C446.616 856.464 438.951 857.199 438.024 861.986C436.483 869.946 441.706 877.678 449.668 879.22C457.628 880.762 465.36 875.538 466.902 867.579C467.83 862.792 460.992 859.248 453.803 857.856ZM450.045 877.281C446.353 876.566 443.198 874.236 441.352 870.876C444.079 867.865 448.034 866.525 451.98 867.29C455.863 868.042 459.109 870.828 460.5 874.585C457.533 877.014 453.737 877.996 450.045 877.281Z" fill="black"/>
<rect x="1593.34" y="242" width="307.584" height="307.584" rx="10" transform="rotate(16.6917 1593.34 242)" fill="#54D1C1" fill-opacity="0.5"/>
<path d="M1683.1 496.27C1681.95 495.924 1680.74 496.583 1680.4 497.729C1678.45 504.222 1671.58 507.915 1665.1 505.97C1658.61 504.025 1654.91 497.156 1656.85 490.67C1657.2 489.524 1656.55 488.306 1655.4 487.961C1654.24 487.616 1653.03 488.275 1652.69 489.42C1650.05 498.206 1655.06 507.503 1663.85 510.138C1672.63 512.773 1681.93 507.768 1684.56 498.979C1684.91 497.828 1684.26 496.615 1683.11 496.27L1683.1 496.27Z" fill="black"/>
<path d="M1722.04 457.033C1721.02 460.416 1717.46 462.337 1714.07 461.321C1710.69 460.307 1708.77 456.741 1709.78 453.357C1710.8 449.971 1714.36 448.05 1717.74 449.065C1721.13 450.08 1723.05 453.647 1722.04 457.033Z" fill="black"/>
<path d="M1656.75 437.455C1655.73 440.838 1652.17 442.759 1648.78 441.744C1645.39 440.728 1643.47 437.162 1644.49 433.779C1645.5 430.393 1649.07 428.472 1652.45 429.487C1655.84 430.503 1657.76 434.069 1656.75 437.455Z" fill="black"/>
<path d="M1681.24 470.134L1673.58 467.835L1687.65 430.809L1683.59 429.264L1667.85 470.662L1679.99 474.302L1681.24 470.134Z" fill="black"/>
<path d="M1811.37 326.196C1797.89 322.153 1783.97 325.426 1773.83 333.685C1767.82 334.785 1760.24 338.598 1754.59 342.818C1741.67 333.255 1727.07 326.594 1712.97 322.837C1674.09 312.473 1611.18 321.953 1588.28 398.339C1588.28 398.339 1587.75 399.595 1587.02 401.481C1582.55 403.503 1578.82 407.556 1577.21 412.919C1574.62 421.565 1577.87 427.048 1581.2 430.217C1579.54 434.939 1577.97 439.826 1576.49 444.928C1568.3 473.36 1574.61 499.685 1594.74 521.066C1615.28 542.88 1642.61 552.292 1650.5 554.656C1658.38 557.022 1686.38 564.202 1715.54 557.287C1744.11 550.51 1763.86 532.001 1772.67 503.751C1774.25 498.682 1775.62 493.734 1776.83 488.88C1781.35 488.059 1787.08 485.273 1789.68 476.626C1791.27 471.319 1790.42 465.934 1787.87 461.801C1793.37 444.591 1795.26 429.058 1794.46 415.083C1800.82 412.666 1807.68 408.637 1811.75 404.445C1824.3 400.549 1834.75 390.697 1838.81 377.156C1845.31 355.502 1833.02 332.683 1811.37 326.191L1811.37 326.196ZM1788.3 369.711L1790.1 373.594C1790.54 374.534 1790.58 375.592 1790.23 376.577C1789.87 377.56 1789.15 378.343 1788.21 378.781L1778.51 383.299C1777.89 383.591 1775.91 384.531 1774.63 382.891C1774.23 382.37 1771.34 376.878 1771.28 376.553C1771.28 376.553 1770.48 373.644 1773.4 372.339L1783.1 367.821C1784.04 367.383 1785.12 367.357 1786.09 367.699C1787.08 368.062 1787.86 368.777 1788.3 369.711L1788.3 369.711ZM1781.04 339.032C1781.72 342.031 1785.12 355.428 1784.85 363.141C1783.63 363.122 1768.78 370.274 1767.94 371.717C1762.49 367.694 1750.16 357.913 1750.92 352.816C1752.3 343.379 1779.73 333.298 1781.04 339.032L1781.04 339.032ZM1582.87 425.636C1580.52 422.575 1580.01 418.739 1581.39 414.164C1583.01 408.761 1587.36 405.063 1592.08 404.496C1588.76 411.013 1585.69 418.063 1582.87 425.636ZM1785.52 475.376C1784.15 479.948 1781.62 482.875 1777.97 484.139C1779.78 476.261 1781.09 468.685 1781.91 461.42C1785.53 464.485 1787.14 469.97 1785.52 475.376ZM1768.52 502.456C1759.73 530.661 1725.25 572.514 1651.76 550.476C1578.26 528.438 1572.5 474.512 1580.68 446.123C1592.62 404.696 1610.62 376.294 1634.2 361.564C1625.5 379.618 1654.67 390.459 1672.06 389.353C1672.67 390.822 1693.49 416.653 1718.84 401.493C1718.14 403.83 1750.74 425.122 1770.29 406.121C1778.14 423.589 1778.67 441.249 1778.39 451.688C1777.55 467.05 1774.28 483.985 1768.52 502.454L1768.52 502.456ZM1783.3 412.932C1783.28 412.924 1783.27 412.922 1783.25 412.917C1778.25 411.416 1777.21 394.507 1776.87 387.99C1778.04 387.991 1792.98 380.681 1793.79 379.176C1800.39 383.345 1810.51 392.484 1811.38 395.36C1813.16 401.218 1789.23 416.182 1783.3 412.932L1783.3 412.932Z" fill="black"/>
</svg>
